<?xml version="1.0" encoding="UTF-8"?>
<svg width="32.375664mm" height="39.157429mm" viewBox="0 0 32.375664 39.157429"
     version="1.1" xmlns="http://www.w3.org/2000/svg">
  <defs>
    <linearGradient id="lg1"
        x1="47.870152" y1="238.77861" x2="56.45245" y2="265.86053"
        gradientUnits="userSpaceOnUse">
      <stop offset="0" stop-color="#a9f3ff"/>
      <stop offset="1" stop-color="#0121dc"/>
    </linearGradient>
    <linearGradient id="lg2"
        x1="61.029675" y1="261.28329" x2="40.241444" y2="245.45372"
        gradientUnits="userSpaceOnUse">
      <stop offset="0" stop-color="#a9f3ff"/>
      <stop offset="1" stop-color="#0121dc"/>
    </linearGradient>
  </defs>
  <g transform="translate(-40.241444,-235.679710)">
    <path fill="url(#lg1)"
      d="m 62.23964,235.67971 c -4.053633,0.10164 -8.127036,-0.14506 -12.167925,0.21701 -4.693689,0.71685 -9.22788,5.00811 -9.160519,9.95242 -0.05314,8.26729 -0.0013,16.36825 -0.0026,24.58813 -0.01042,2.57878 2.8232,4.38808 5.709459,4.39987 2.737756,-0.0276 5.159138,-2.10515 5.213879,-5.24833 0.124844,-2.31598 0.999645,-7.45585 10.068189,-7.46162 4.733313,0.0736 9.63632,-2.97307 10.833459,-7.70532 0.612599,-2.49633 0.554517,-4.96862 0.492553,-7.62595 -0.0041,-2.96153 -0.254993,-5.51718 -2.193408,-7.49961 -2.209593,-2.47144 -5.536209,-3.60878 -8.793134,-3.6166 z"/>
    <path fill="url(#lg2)"
      d="m 73.200183,245.52403 c -0.06906,-0.48403 -0.120007,-0.919 -0.110587,-1.22886 0,0 0.498447,8.77543 -15.406295,8.65942 -12.756201,-0.0931 -16.157185,3.58572 -16.786056,9.60458 0.0041,2.03153 0.0074,4.06368 0.0088,6.10298 0.0012,0.0201 0.0019,0.0388 0.0031,0.0589 0.04777,0.76732 1.243441,-8.34825 17.62218,-6.72621 0.824514,0.0816 1.60146,0.13237 2.343009,0.15916 0.331098,-0.0156 0.669892,-0.0266 1.025778,-0.0269 4.733308,0.0736 9.636309,-2.97323 10.833447,-7.70547 0.612598,-2.49633 0.55444,-4.96856 0.492476,-7.62589 -6e-4,-0.43387 -0.01011,-0.85584 -0.02584,-1.27176 z"/>
  </g>
</svg>
