<?xml version="1.0" encoding="UTF-8" standalone="no"?>
<!-- Created with Inkscape (http://www.inkscape.org/) -->

<svg
   width="120.80939mm"
   height="29.076424mm"
   viewBox="0 0 120.80939 29.076424"
   version="1.1"
   id="svg1"
   xml:space="preserve"
   xmlns:xlink="http://www.w3.org/1999/xlink"
   xmlns="http://www.w3.org/2000/svg"
   xmlns:svg="http://www.w3.org/2000/svg"><defs
     id="defs1"><linearGradient
       id="linearGradient20"><stop
         style="stop-color:#a9f3ff;stop-opacity:1;"
         offset="0"
         id="stop22" /><stop
         style="stop-color:#0121dc;stop-opacity:1"
         offset="1"
         id="stop21" /></linearGradient><rect
       x="5.7665834"
       y="611.25787"
       width="648.74066"
       height="100.91521"
       id="rect12" /><linearGradient
       xlink:href="#linearGradient20"
       id="linearGradient22"
       x1="47.870152"
       y1="238.77861"
       x2="56.45245"
       y2="265.86053"
       gradientUnits="userSpaceOnUse" /><linearGradient
       xlink:href="#linearGradient20"
       id="linearGradient32"
       x1="61.029675"
       y1="261.28329"
       x2="40.241444"
       y2="245.45372"
       gradientUnits="userSpaceOnUse" /></defs><g
     id="layer1"
     transform="translate(-45.459279,-92.848851)"><g
       id="g34"
       transform="matrix(0.74255173,0,0,0.74255173,26.674763,69.698495)"><g
         id="g33"
         transform="translate(15.697075,-93.694822)"><g
           id="g12"
           style="fill:#080d42;fill-opacity:1"
           transform="translate(-8.6308994,-147.26472)"><text
             style="font-size:23.6173px;line-height:0.7;font-family:Nunito;-inkscape-font-specification:'Nunito, @wght=700';font-variation-settings:'wght' 700;text-align:center;white-space:pre;fill:#080d42;fill-opacity:1;stroke-width:1.00106"
             x="107.16892"
             y="296.76382"
             id="text7">S</text><g
             id="g11"
             style="fill:#080d42;fill-opacity:1"><text
               style="font-size:23.6173px;line-height:0.7;font-family:Nunito;-inkscape-font-specification:'Nunito, @wght=700';font-variation-settings:'wght' 700;text-align:center;white-space:pre;fill:#080d42;fill-opacity:1;stroke-width:1.00106"
               x="60.866489"
               y="296.81107"
               id="text11">P</text><text
               style="font-size:23.6173px;line-height:0.7;font-family:Nunito;-inkscape-font-specification:'Nunito, @wght=700';font-variation-settings:'wght' 700;text-align:center;white-space:pre;fill:#080d42;fill-opacity:1;stroke-width:1.00106"
               x="75.192627"
               y="296.76382"
               id="text10">a</text><text
               style="font-size:23.6173px;line-height:0.7;font-family:Nunito;-inkscape-font-specification:'Nunito, @wght=700';font-variation-settings:'wght' 700;text-align:center;white-space:pre;fill:#080d42;fill-opacity:1;stroke-width:1.00106"
               x="87.052971"
               y="296.76382"
               id="text9">c</text><text
               style="font-size:23.6173px;line-height:0.7;font-family:Nunito;-inkscape-font-specification:'Nunito, @wght=700';font-variation-settings:'wght' 700;text-align:center;white-space:pre;fill:#080d42;fill-opacity:1;stroke-width:1.00106"
               x="98.438301"
               y="296.76382"
               id="text8">t</text><text
               style="font-size:23.6173px;line-height:0.7;font-family:Nunito;-inkscape-font-specification:'Nunito, @wght=700';font-variation-settings:'wght' 700;text-align:center;white-space:pre;fill:#080d42;fill-opacity:1;stroke-width:1.00106"
               x="120.51354"
               y="296.76382"
               id="text6">t</text><text
               style="font-size:23.6173px;line-height:0.7;font-family:Nunito;-inkscape-font-specification:'Nunito, @wght=700';font-variation-settings:'wght' 700;text-align:center;white-space:pre;fill:#080d42;fill-opacity:1;stroke-width:1.00106"
               x="129.58264"
               y="296.81107"
               id="text5">r</text><text
               style="font-size:23.6173px;line-height:0.7;font-family:Nunito;-inkscape-font-specification:'Nunito, @wght=700';font-variation-settings:'wght' 700;text-align:center;white-space:pre;fill:#080d42;fill-opacity:1;stroke-width:1.00106"
               x="137.78409"
               y="296.76382"
               id="text4">e</text><text
               style="font-size:23.6173px;line-height:0.7;font-family:Nunito;-inkscape-font-specification:'Nunito, @wght=700';font-variation-settings:'wght' 700;text-align:center;white-space:pre;fill:#080d42;fill-opacity:1;stroke-width:1.00106"
               x="149.86479"
               y="296.76382"
               id="text3">a</text><text
               style="font-size:23.6173px;line-height:0.7;font-family:Nunito;-inkscape-font-specification:'Nunito, @wght=700';font-variation-settings:'wght' 700;text-align:center;white-space:pre;fill:#080d42;fill-opacity:1;stroke-width:1.00106"
               x="161.72513"
               y="296.81107"
               id="text2">m</text></g></g><text
           xml:space="preserve"
           transform="matrix(0.59009559,0,0,0.59009559,-81.748167,-205.17176)"
           id="text12"
           style="font-style:normal;font-variant:normal;font-weight:normal;font-stretch:normal;font-size:24px;line-height:0.7;font-family:Nunito;-inkscape-font-specification:'Nunito, @wght=400';font-variant-ligatures:normal;font-variant-caps:normal;font-variant-numeric:normal;font-variant-east-asian:normal;font-variation-settings:'wght' 400;text-align:center;white-space:pre;shape-inside:url(#rect12);fill:#080d42;fill-opacity:1;stroke-width:3.61701"><tspan
             x="228.48471"
             y="625.44667"
             id="tspan1">confidence to build</tspan></text></g><g
         id="g32"
         transform="translate(-15.589936,-204.50295)"><path
           id="path25"
           style="font-variation-settings:'wght' 400;fill:url(#linearGradient22);fill-opacity:1;stroke-width:0.857672"
           d="m 62.23964,235.67971 c -4.053633,0.10164 -8.127036,-0.14506 -12.167925,0.21701 -4.693689,0.71685 -9.22788,5.00811 -9.160519,9.95242 -0.05314,8.26729 -0.0013,16.36825 -0.0026,24.58813 -0.01042,2.57878 2.8232,4.38808 5.709459,4.39987 2.737756,-0.0276 5.159138,-2.10515 5.213879,-5.24833 0.124844,-2.31598 0.999645,-7.45585 10.068189,-7.46162 4.733313,0.0736 9.63632,-2.97307 10.833459,-7.70532 0.612599,-2.49633 0.554517,-4.96862 0.492553,-7.62595 -0.0041,-2.96153 -0.254993,-5.51718 -2.193408,-7.49961 -2.209593,-2.47144 -5.536209,-3.60878 -8.793134,-3.6166 z" /><path
           id="path31"
           style="font-variation-settings:'wght' 400;fill:url(#linearGradient32);fill-opacity:1;stroke-width:0.857672"
           d="m 73.200183,245.52403 c -0.06906,-0.48403 -0.120007,-0.919 -0.110587,-1.22886 0,0 0.498447,8.77543 -15.406295,8.65942 -12.756201,-0.0931 -16.157185,3.58572 -16.786056,9.60458 0.0041,2.03153 0.0074,4.06368 0.0088,6.10298 0.0012,0.0201 0.0019,0.0388 0.0031,0.0589 0.04777,0.76732 1.243441,-8.34825 17.62218,-6.72621 0.824514,0.0816 1.60146,0.13237 2.343009,0.15916 0.331098,-0.0156 0.669892,-0.0266 1.025778,-0.0269 4.733308,0.0736 9.636309,-2.97323 10.833447,-7.70547 0.612598,-2.49633 0.55444,-4.96856 0.492476,-7.62589 -6e-4,-0.43387 -0.01011,-0.85584 -0.02584,-1.27176 z" /></g></g></g></svg>
